<svg width="46" height="46" viewBox="0 0 46 46" fill="none" xmlns="http://www.w3.org/2000/svg">
<path d="M23 2.875C28.3375 2.875 33.4564 4.99531 37.2305 8.76948C41.0047 12.5436 43.125 17.6625 43.125 23C43.125 28.3375 41.0047 33.4564 37.2305 37.2305C33.4564 41.0047 28.3375 43.125 23 43.125C17.6625 43.125 12.5436 41.0047 8.76948 37.2305C4.99531 33.4564 2.875 28.3375 2.875 23C2.875 17.6625 4.99531 12.5436 8.76948 8.76948C12.5436 4.99531 17.6625 2.875 23 2.875ZM20.493 26.9704L16.0224 22.4969C15.8621 22.3366 15.6718 22.2095 15.4624 22.1227C15.253 22.036 15.0286 21.9914 14.8019 21.9914C14.5753 21.9914 14.3508 22.036 14.1414 22.1227C13.932 22.2095 13.7418 22.3366 13.5815 22.4969C13.2578 22.8206 13.076 23.2596 13.076 23.7173C13.076 24.1751 13.2578 24.6141 13.5815 24.9377L19.274 30.6303C19.4338 30.7913 19.6239 30.9192 19.8334 31.0064C20.0429 31.0937 20.2675 31.1386 20.4944 31.1386C20.7213 31.1386 20.946 31.0937 21.1555 31.0064C21.3649 30.9192 21.5551 30.7913 21.7149 30.6303L33.5024 18.8399C33.6648 18.6803 33.794 18.4901 33.8825 18.2803C33.9711 18.0705 34.0172 17.8453 34.0183 17.6176C34.0193 17.3899 33.9753 17.1642 33.8887 16.9536C33.8021 16.743 33.6747 16.5516 33.5138 16.3905C33.3528 16.2294 33.1616 16.1017 32.9511 16.0149C32.7406 15.9281 32.515 15.8838 32.2873 15.8845C32.0596 15.8853 31.8343 15.9312 31.6244 16.0195C31.4145 16.1078 31.2242 16.2368 31.0644 16.399L20.493 26.9704Z" fill="#4EE1A0"/>
</svg>
